<svg id="Capa_1" enable-background="new 0 0 512 512" height="512" viewBox="0 0 512 512" width="512" xmlns="http://www.w3.org/2000/svg"><g><g><g><g><g><path d="m211.371 355.322c-5.523 0-10-4.477-10-10v-50.794c0-5.523 4.477-10 10-10s10 4.477 10 10v50.794c0 5.523-4.477 10-10 10z"/></g></g><g><g><path d="m211.369 400.71c-4.175 0-8.006-2.695-9.405-6.631-1.377-3.872-.212-8.328 2.936-10.991 3.283-2.777 8.093-3.122 11.746-.864 3.498 2.163 5.346 6.409 4.533 10.446-.93 4.617-5.1 8.04-9.81 8.04z"/></g></g></g><g><g><g><path d="m256 423.726c-5.523 0-10-4.477-10-10v-119.198c0-5.523 4.477-10 10-10s10 4.477 10 10v119.198c0 5.523-4.477 10-10 10z"/></g></g></g><g><g><g><path d="m300.628 460.492c-5.523 0-10-4.477-10-10v-155.964c0-5.523 4.477-10 10-10s10 4.477 10 10v155.964c0 5.523-4.477 10-10 10z"/></g></g></g><path d="m501.988 79.332h-106.062v-17.824l-.003-.168c-.085-5.457-4.535-9.835-9.992-9.832h-.005-259.852-.005c-5.444-.053-9.908 4.301-9.991 9.744l-.004.256v17.824h-106.062c-5.58 0-10.026 4.565-10.012 10.145.038 14.752 5.791 28.555 16.182 38.852 2.021 2.019 4.162 3.856 6.402 5.497v.676c0 20.985 11.912 39.983 30.264 49.259 2.1 28.518 25.975 51.082 55.02 51.082h8.205v17.824.009c0 .026.02.308.054.762.385 5.202 4.725 9.231 9.941 9.229h.005 259.852c.011 0 .218-.012.565-.033 5.272-.315 9.405-4.669 9.434-9.951 0-.003 0-.006 0-.007 0-.003 0-17.833 0-17.833h8.206c29.045 0 52.92-22.563 55.02-51.082 18.352-9.275 30.264-28.274 30.264-49.259v-.676c2.237-1.638 4.37-3.468 6.375-5.47 10.418-10.324 16.172-24.126 16.209-38.879.016-5.579-4.43-10.145-10.01-10.145zm-126.062 150.848-80.944-73.013 80.944-73.145zm-15.982-158.672-103.944 93.929-103.944-93.929zm-223.87 12.514 80.944 73.145-80.944 73.013zm-28.205 130.821c-19.393 0-35.17-15.777-35.17-35.17v-2.559c0-4.243-2.677-8.024-6.679-9.433-12.781-4.5-21.737-15.982-23.218-29.275h22.788c5.523 0 10-4.477 10-10s-4.477-10-10-10h-30.176c-1.785-1.203-3.473-2.605-5.126-4.255-4.213-4.175-7.224-9.253-8.86-14.818h94.647v115.511h-8.206zm44.221 27.824 79.844-72.021 17.361 15.689c1.904 1.72 4.304 2.58 6.705 2.58s4.801-.86 6.705-2.58l17.361-15.689 79.844 72.021zm329.595-128.49c-1.633 1.631-3.316 3.028-5.099 4.229h-30.176c-5.523 0-10 4.477-10 10s4.477 10 10 10h22.789c-1.48 13.293-10.437 24.775-23.218 29.275-4.002 1.409-6.679 5.19-6.679 9.433v2.559c0 19.393-15.777 35.17-35.17 35.17h-8.206v-115.511h94.646c-1.639 5.568-4.657 10.653-8.887 14.845z"/></g></g></svg>